{
  "accessors": [
    {
      "bufferView": 1,
      "componentType": 5126,
      "count": 3436,
      "max": [
        0.30344048142433167,
        0.33937618136405945,
        0.49587064981460571
      ],
      "min": [
        -0.288228839635849,
        -0.24600261449813843,
        -0.33087697625160217
      ],
      "type": "VEC3"
    },
    {
      "bufferView": 1,
      "byteOffset": 41232,
      "componentType": 5126,
      "count": 3436,
      "max": [
        0.99915802478790283,
        0.99882638454437256,
        0.99782472848892212
      ],
      "min": [
        -0.99796164035797119,
        -0.99843382835388184,
        -0.99887299537658691
      ],
      "type": "VEC3"
    },
    {
      "bufferView": 2,
      "componentType": 5126,
      "count": 3436,
      "max": [
        1,
        1,
        1,
        1
      ],
      "min": [
        0.16862745583057404,
        0.062745101749897003,
        0,
        1
      ],
      "type": "VEC4"
    },
    {
      "bufferView": 0,
      "componentType": 5125,
      "count": 20604,
      "max": [
        3435
      ],
      "min": [
        0
      ],
      "type": "SCALAR"
    },
    {
      "bufferView": 1,
      "byteOffset": 82464,
      "componentType": 5126,
      "count": 2705,
      "max": [
        0.34487757086753845,
        0.42168408632278442,
        0.19236768782138824
      ],
      "min": [
        -0.33670184016227722,
        0.028377257287502289,
        -0.38348463177680969
      ],
      "type": "VEC3"
    },
    {
      "bufferView": 1,
      "byteOffset": 114924,
      "componentType": 5126,
      "count": 2705,
      "max": [
        0.99937599897384644,
        0.99845206737518311,
        0.99977940320968628
      ],
      "min": [
        -0.99999779462814331,
        -0.99683868885040283,
        -0.99831598997116089
      ],
      "type": "VEC3"
    },
    {
      "bufferView": 2,
      "byteOffset": 54976,
      "componentType": 5126,
      "count": 2705,
      "max": [
        0.43137255311012268,
        0.31372550129890442,
        0.18431372940540314,
        1
      ],
      "min": [
        0.32549020648002625,
        0.18039216101169586,
        0.015686275437474251,
        1
      ],
      "type": "VEC4"
    },
    {
      "bufferView": 0,
      "byteOffset": 82416,
      "componentType": 5125,
      "count": 16194,
      "max": [
        2704
      ],
      "min": [
        0
      ],
      "type": "SCALAR"
    },
    {
      "bufferView": 1,
      "byteOffset": 147384,
      "componentType": 5126,
      "count": 1177,
      "max": [
        0.1955638974905014,
        0.039066828787326813,
        -0.22282202541828156
      ],
      "min": [
        -0.19045539200305939,
        -0.17756792902946472,
        -0.37766829133033752
      ],
      "type": "VEC3"
    },
    {
      "bufferView": 1,
      "byteOffset": 161508,
      "componentType": 5126,
      "count": 1177,
      "max": [
        0.9979698657989502,
        0.99794548749923706,
        0.99618703126907349
      ],
      "min": [
        -0.99944978952407837,
        -0.9675411581993103,
        -0.99984848499298096
      ],
      "type": "VEC3"
    },
    {
      "bufferView": 2,
      "byteOffset": 98256,
      "componentType": 5126,
      "count": 1177,
      "max": [
        1,
        1,
        1,
        1
      ],
      "min": [
        0.68235296010971069,
        0.49803921580314636,
        0,
        1
      ],
      "type": "VEC4"
    },
    {
      "bufferView": 0,
      "byteOffset": 147192,
      "componentType": 5125,
      "count": 7038,
      "max": [
        1176
      ],
      "min": [
        0
      ],
      "type": "SCALAR"
    },
    {
      "bufferView": 1,
      "byteOffset": 175632,
      "componentType": 5126,
      "count": 4552,
      "max": [
        0.24030590057373047,
        0.27372029423713684,
        0.51140135526657104
      ],
      "min": [
        -0.21894834935665131,
        -0.22608567774295807,
        0.077677875757217407
      ],
      "type": "VEC3"
    },
    {
      "bufferView": 1,
      "byteOffset": 230256,
      "componentType": 5126,
      "count": 4552,
      "max": [
        0.99954891204833984,
        0.99891525506973267,
        0.99997377395629883
      ],
      "min": [
        -0.99958920478820801,
        -0.9983106255531311,
        -0.99992936849594116
      ],
      "type": "VEC3"
    },
    {
      "bufferView": 2,
      "byteOffset": 117088,
      "componentType": 5126,
      "count": 4552,
      "max": [
        1,
        1,
        1,
        1
      ],
      "min": [
        0.69411766529083252,
        0.69411766529083252,
        0.69411766529083252,
        1
      ],
      "type": "VEC4"
    },
    {
      "bufferView": 0,
      "byteOffset": 175344,
      "componentType": 5125,
      "count": 27300,
      "max": [
        4551
      ],
      "min": [
        0
      ],
      "type": "SCALAR"
    },
    {
      "bufferView": 1,
      "byteOffset": 284880,
      "componentType": 5126,
      "count": 1703,
      "max": [
        0.091528177261352539,
        -0.062517806887626648,
        0.40978208184242249
      ],
      "min": [
        -0.10328905284404755,
        -0.32356470823287964,
        0.21758106350898743
      ],
      "type": "VEC3"
    },
    {
      "bufferView": 1,
      "byteOffset": 305316,
      "componentType": 5126,
      "count": 1703,
      "max": [
        0.99754011631011963,
        0.99973303079605103,
        0.99947625398635864
      ],
      "min": [
        -0.99774563312530518,
        -0.96953785419464111,
        -0.99971467256546021
      ],
      "type": "VEC3"
    },
    {
      "bufferView": 2,
      "byteOffset": 189920,
      "componentType": 5126,
      "count": 1703,
      "max": [
        0.95686274766921997,
        0.93725490570068359,
        0.87058824300765991,
        1
      ],
      "min": [
        0.69019609689712524,
        0.5215686559677124,
        0,
        1
      ],
      "type": "VEC4"
    },
    {
      "bufferView": 0,
      "byteOffset": 284544,
      "componentType": 5125,
      "count": 10206,
      "max": [
        1702
      ],
      "min": [
        0
      ],
      "type": "SCALAR"
    },
    {
      "bufferView": 1,
      "byteOffset": 325752,
      "componentType": 5126,
      "count": 1584,
      "max": [
        0.098508372902870178,
        -0.074449390172958374,
        0.42333626747131348
      ],
      "min": [
        -0.11386149376630783,
        -0.17121933400630951,
        0.33160051703453064
      ],
      "type": "VEC3"
    },
    {
      "bufferView": 1,
      "byteOffset": 344760,
      "componentType": 5126,
      "count": 1584,
      "max": [
        0.99992567300796509,
        0.9999803900718689,
        0.99818867444992065
      ],
      "min": [
        -0.99847871065139771,
        -0.99933969974517822,
        -0.99544370174407959
      ],
      "type": "VEC3"
    },
    {
      "bufferView": 2,
      "byteOffset": 217168,
      "componentType": 5126,
      "count": 1584,
      "max": [
        0.83921569585800171,
        0.94117647409439087,
        0.078431375324726105,
        1
      ],
      "min": [
        0,
        0,
        0,
        1
      ],
      "type": "VEC4"
    },
    {
      "bufferView": 0,
      "byteOffset": 325368,
      "componentType": 5125,
      "count": 9480,
      "max": [
        1583
      ],
      "min": [
        0
      ],
      "type": "SCALAR"
    },
    {
      "bufferView": 1,
      "byteOffset": 363768,
      "componentType": 5126,
      "count": 627,
      "max": [
        0.068329013884067535,
        0.064953282475471497,
        -0.3060835599899292
      ],
      "min": [
        -0.018422650173306465,
        -0.022656578570604324,
        -0.39879733324050903
      ],
      "type": "VEC3"
    },
    {
      "bufferView": 1,
      "byteOffset": 371292,
      "componentType": 5126,
      "count": 627,
      "max": [
        0.99541789293289185,
        0.99959123134613037,
        0.99829041957855225
      ],
      "min": [
        -0.99958163499832153,
        -0.99814903736114502,
        -0.9998779296875
      ],
      "type": "VEC3"
    },
    {
      "bufferView": 2,
      "byteOffset": 242512,
      "componentType": 5126,
      "count": 627,
      "max": [
        0.17254902422428131,
        0.062745101749897003,
        0,
        1
      ],
      "min": [
        0.16862745583057404,
        0.058823529630899429,
        0,
        1
      ],
      "type": "VEC4"
    },
    {
      "bufferView": 0,
      "byteOffset": 363288,
      "componentType": 5125,
      "count": 3786,
      "max": [
        626
      ],
      "min": [
        0
      ],
      "type": "SCALAR"
    }
  ],
  "asset": {
    "extras": {
      "author": "smeerws (https://sketchfab.com/smeerws)",
      "license": "CC-BY-4.0 (http://creativecommons.org/licenses/by/4.0/)",
      "source": "https://sketchfab.com/models/031875966a5740f18ac4cffa8b14031d",
      "title": "Medium | Eagle-Balloon"
    },
    "generator": "Sketchfab-3.19.1",
    "version": "2.0"
  },
  "bufferViews": [
    {
      "buffer": 0,
      "byteLength": 378432,
      "byteOffset": 0,
      "name": "floatBufferViews",
      "target": 34963
    },
    {
      "buffer": 0,
      "byteLength": 378816,
      "byteOffset": 378432,
      "byteStride": 12,
      "name": "floatBufferViews",
      "target": 34962
    },
    {
      "buffer": 0,
      "byteLength": 252544,
      "byteOffset": 757248,
      "byteStride": 16,
      "name": "floatBufferViews",
      "target": 34962
    }
  ],
  "buffers": [
    {
      "byteLength": 1009792,
      "uri": "scene.bin"
    }
  ],
  "materials": [
    {
      "doubleSided": true,
      "emissiveFactor": [
        0,
        0,
        0
      ],
      "name": "Scene_-_Root",
      "pbrMetallicRoughness": {
        "baseColorFactor": [
          1,
          1,
          1,
          1
        ],
        "metallicFactor": 0,
        "roughnessFactor": 0.30316310980000005
      }
    }
  ],
  "meshes": [
    {
      "name": "Layer_1__0",
      "primitives": [
        {
          "attributes": {
            "COLOR_0": 2,
            "NORMAL": 1,
            "POSITION": 0
          },
          "indices": 3,
          "material": 0,
          "mode": 4
        }
      ]
    },
    {
      "name": "winds__0",
      "primitives": [
        {
          "attributes": {
            "COLOR_0": 6,
            "NORMAL": 5,
            "POSITION": 4
          },
          "indices": 7,
          "material": 0,
          "mode": 4
        }
      ]
    },
    {
      "name": "Layer_3feet__0",
      "primitives": [
        {
          "attributes": {
            "COLOR_0": 10,
            "NORMAL": 9,
            "POSITION": 8
          },
          "indices": 11,
          "material": 0,
          "mode": 4
        }
      ]
    },
    {
      "name": "head__0",
      "primitives": [
        {
          "attributes": {
            "COLOR_0": 14,
            "NORMAL": 13,
            "POSITION": 12
          },
          "indices": 15,
          "material": 0,
          "mode": 4
        }
      ]
    },
    {
      "name": "Layer_5schnabel__0",
      "primitives": [
        {
          "attributes": {
            "COLOR_0": 18,
            "NORMAL": 17,
            "POSITION": 16
          },
          "indices": 19,
          "material": 0,
          "mode": 4
        }
      ]
    },
    {
      "name": "eyes__0",
      "primitives": [
        {
          "attributes": {
            "COLOR_0": 22,
            "NORMAL": 21,
            "POSITION": 20
          },
          "indices": 23,
          "material": 0,
          "mode": 4
        }
      ]
    },
    {
      "name": "knot__0",
      "primitives": [
        {
          "attributes": {
            "COLOR_0": 26,
            "NORMAL": 25,
            "POSITION": 24
          },
          "indices": 27,
          "material": 0,
          "mode": 4
        }
      ]
    }
  ],
  "nodes": [
    {
      "children": [
        1
      ],
      "name": "RootNode (gltf orientation matrix)",
      "rotation": [
        -0.70710678118654746,
        -0,
        -0,
        0.70710678118654757
      ]
    },
    {
      "children": [
        2
      ],
      "matrix": [
        1,
        0,
        0,
        0,
        0,
        -1,
        0,
        0,
        0,
        0,
        -1,
        0,
        0,
        -0.098118782043457031,
        -0.11260458827018738,
        1
      ],
      "name": "RootNode (model correction matrix)"
    },
    {
      "children": [
        3
      ],
      "matrix": [
        1,
        0,
        0,
        0,
        0,
        -1,
        0,
        0,
        0,
        0,
        -1,
        0,
        0,
        0,
        0,
        1
      ],
      "name": "426d00c653e3405da477dadb8c0365f4.fbx"
    },
    {
      "children": [
        4,
        6,
        8,
        10,
        12,
        14,
        16
      ],
      "name": "RootNode"
    },
    {
      "children": [
        5
      ],
      "name": "Layer_1"
    },
    {
      "mesh": 0,
      "name": "Layer_1__0"
    },
    {
      "children": [
        7
      ],
      "name": "winds"
    },
    {
      "mesh": 1,
      "name": "winds__0"
    },
    {
      "children": [
        9
      ],
      "name": "Layer_3feet"
    },
    {
      "mesh": 2,
      "name": "Layer_3feet__0"
    },
    {
      "children": [
        11
      ],
      "name": "head"
    },
    {
      "mesh": 3,
      "name": "head__0"
    },
    {
      "children": [
        13
      ],
      "name": "Layer_5schnabel"
    },
    {
      "mesh": 4,
      "name": "Layer_5schnabel__0"
    },
    {
      "children": [
        15
      ],
      "name": "eyes"
    },
    {
      "mesh": 5,
      "name": "eyes__0"
    },
    {
      "children": [
        17
      ],
      "name": "knot"
    },
    {
      "mesh": 6,
      "name": "knot__0"
    }
  ],
  "scene": 0,
  "scenes": [
    {
      "name": "OSG_Scene",
      "nodes": [
        0
      ]
    }
  ]
}

