<?xml version="1.0" encoding="UTF-8" standalone="no"?>
<!-- Created with Inkscape (http://www.inkscape.org/) -->

<svg
   xmlns:dc="http://purl.org/dc/elements/1.1/"
   xmlns:cc="http://creativecommons.org/ns#"
   xmlns:rdf="http://www.w3.org/1999/02/22-rdf-syntax-ns#"
   xmlns:svg="http://www.w3.org/2000/svg"
   xmlns="http://www.w3.org/2000/svg"
   version="1.1"
   width="257.0704"
   height="243.39622"
   id="svg3022">
  <defs
     id="defs3024" />
  <metadata
     id="metadata3027">
    <rdf:RDF>
      <cc:Work
         rdf:about="">
        <dc:format>image/svg+xml</dc:format>
        <dc:type
           rdf:resource="http://purl.org/dc/dcmitype/StillImage" />
        <dc:title></dc:title>
      </cc:Work>
    </rdf:RDF>
  </metadata>
  <g
     transform="translate(-194.32453,-539.23549)"
     id="layer1">
    <path
       d="m 450.8125,540.65625 c -47.58765,0.38829 -61.80139,-1.00157 -88.34375,6.53125 -10.63358,3.02311 -20.96842,13.17475 -21.65625,25.15625 l 10.625,12.59375 c 8.68659,-2.67365 13.55983,-11.11859 21.28125,-15.0625 2.54052,-1.298 5.9658,-2.86346 9,-1.6875 9.4077,3.64438 16.27639,1.02769 24.375,3.21875 2.82377,0.76445 4.25514,8.88051 3.75,9.875 -0.0337,0.0663 -0.0737,0.0951 -0.125,0.0937 -10.8721,-0.33282 -19.44861,2.49686 -22.59375,14.40625 -1.91926,7.26656 -5.29884,13.57658 -8.59375,20 8.90292,9.59075 15.83736,21.58725 26.09375,29.96875 -5.10324,-39.35591 17.66487,-79.56095 46.1875,-105.09375 z"
       id="path2494"
       style="fill:#000000;fill-opacity:1;fill-rule:nonzero;stroke:#1465af;stroke-width:1.16486847;stroke-linecap:butt;stroke-linejoin:miter;stroke-miterlimit:4;stroke-opacity:1;stroke-dasharray:none" />
    <path
       d="m 195.31838,564.65155 c 16.25269,-11.09398 31.97287,-18.74883 51.24867,-22.27117 24.29028,-4.4376 50.59412,-4.76487 68.74388,12.7248 34.25268,32.99351 61.99874,67.62339 92.05235,105.33184 1.18705,1.48659 1.08721,5.54145 0.0499,6.13497 -21.34483,12.15901 -42.48997,22.16024 -65.25482,30.54729 -3.62219,1.33683 -8.18737,-0.25516 -10.45054,-2.30755 -34.25821,-31.12972 -57.72754,-68.39441 -90.60456,-100.78885 -12.67488,-12.49183 -27.90692,-21.41139 -44.91955,-26.69768 -1.35901,-0.42157 -1.60863,-2.16887 -0.86533,-2.67365 z"
       id="path2496"
       style="fill:#000000;fill-opacity:1;fill-rule:nonzero;stroke:#1465af;stroke-width:1.16486847;stroke-linecap:butt;stroke-linejoin:miter;stroke-miterlimit:4;stroke-opacity:1;stroke-dasharray:none" />
    <path
       d="m 315.05577,716.55595 c -24.72295,17.6006 -45.82371,39.52787 -61.46623,65.49334 -5.97411,-25.46624 -6.3735,-52.35252 2.46841,-77.08656 8.60339,-24.0684 10.2453,-47.46007 11.38798,-72.54911 15.62587,18.00553 33.37626,37.89705 47.99258,55.95251 l -0.38274,28.18982 z"
       id="path2498"
       style="fill:#000000;fill-opacity:1;fill-rule:nonzero;stroke:#1465af;stroke-width:1.16486847;stroke-linecap:butt;stroke-linejoin:miter;stroke-miterlimit:4;stroke-opacity:1;stroke-dasharray:none" />
  </g>
</svg>
