<?xml version="1.0" encoding="UTF-8" standalone="no"?>
<svg
   width="16"
   height="16"
   viewBox="0 0 16 16"
   version="1.1"
   id="svg4"
   sodipodi:docname="deno-logo.svg"
   inkscape:version="1.3.2 (091e20e, 2023-11-25, custom)"
   xmlns:inkscape="http://www.inkscape.org/namespaces/inkscape"
   xmlns:sodipodi="http://sodipodi.sourceforge.net/DTD/sodipodi-0.dtd"
   xmlns="http://www.w3.org/2000/svg"
   xmlns:svg="http://www.w3.org/2000/svg"
   xmlns:rdf="http://www.w3.org/1999/02/22-rdf-syntax-ns#"
   xmlns:cc="http://creativecommons.org/ns#"
   xmlns:dc="http://purl.org/dc/elements/1.1/">
  <defs
     id="defs4" />
  <sodipodi:namedview
     id="namedview4"
     pagecolor="#505050"
     bordercolor="#ffffff"
     borderopacity="1"
     inkscape:showpageshadow="0"
     inkscape:pageopacity="0"
     inkscape:pagecheckerboard="1"
     inkscape:deskcolor="#d1d1d1"
     inkscape:zoom="12.805262"
     inkscape:cx="46.855738"
     inkscape:cy="32.057134"
     inkscape:window-width="2256"
     inkscape:window-height="1415"
     inkscape:window-x="-9"
     inkscape:window-y="-9"
     inkscape:window-maximized="1"
     inkscape:current-layer="svg4" />
  <title
     id="title1">Deno logo</title>
  <metadata
     id="metadata4">
    <rdf:RDF>
      <cc:Work
         rdf:about="">
        <dc:title>Deno logo</dc:title>
      </cc:Work>
    </rdf:RDF>
  </metadata>
  <rect
     style="fill:#ffffff;opacity:0.01"
     id="rect4"
     width="16.009045"
     height="15.462394"
     x="-0.15618579"
     y="0.15618579" />
  <g
     id="g4"
     transform="matrix(0.00111453,0,0,0.00111453,5.3035248,5.2751833)">
    <path
       d="M 2361.2079,-39.758412 C 4034.8622,-103.8076 5374.0146,1739.3775 4795.9126,3311.3251 c -456.2732,1611.5321 -2623.0673,2315.5662 -3939.43495,1280 -1391.66196,-931.9324 -1391.66196,-3210.2346 0,-4142.16702 C 1289.7932,132.86885 1824.7381,-40.945263 2361.2079,-39.758412 Z"
       id="path1" />
    <path
       fill="#ffffff"
       d="m 2460,1449 c -541.1743,-8.0103 -1148.4375,282.0632 -1297.625,839.4121 -116.5297,385.8117 120.2743,803.1341 487.0981,946.4345 299.6568,137.0653 636.2703,162.5598 961.5269,146.1534 -50.8745,82.8687 32.6164,166.9391 39,254 94.3976,397.0863 153.6668,801.5892 214,1205 536.3266,-69.3759 1042.9676,-337.7223 1404,-740 C 4106.6591,3508.3622 3956.8185,2913.3177 3786.5239,2324.2852 3603.8854,1766.2474 3031.3488,1431.0892 2460,1449 Z m -654,2669 c -175.1239,-25.6253 -167.0778,183.4843 -209.4723,297.7542 C 1576.4256,4550.8707 1425.034,4749.3706 1756,4715 c 51.8855,-26.4364 112.1425,-298.7657 80.7939,-230.7773 15.7211,-113.813 113.3565,-246.4266 13.2061,-344.8946 z m 697,-305 c -175.7968,-26.3757 -168.1704,183.127 -210.5916,297.722 C 2254.877,4251.8506 2215.2251,4392.6982 2179,4534 c 37.2398,293.0595 297.9179,74.6607 287.2733,-105.7776 38.5511,-166.3767 101.609,-331.0574 126.017,-498.4482 C 2580.5131,3880.2526 2583.1202,3820.3625 2503,3813 Z M 1318,3164 c -65.2647,216.8475 -118.725,437.7585 -180,656 32.4967,297.9459 298.1215,77.5585 287.1778,-104.8033 C 1461.4519,3580.4644 1497.7259,3445.7322 1534,3311 c -77.2504,-40.5966 -150.2009,-89.6144 -216,-147 z M 913,2439 C 737.25276,2413.8314 744.66526,2621.9436 702.40835,2736.722 664.87698,2877.8506 625.22511,3018.6982 589,3160 c 32.50065,297.947 298.07472,77.5459 287.27332,-104.7776 38.80379,-171.9123 106.98605,-339.3139 126.86728,-514.1286 C 996.36441,2493.3859 959.84528,2451.2841 913,2439 Z m 3811,-143 c -175.0372,-24.4072 -167.2761,183.291 -209.5916,297.722 -38.1975,141.0742 -75.9165,282.2925 -114.4084,423.278 28.5778,304.8181 297.5008,80.027 287.5214,-104.7104 39.039,-172.0788 107.7981,-339.5818 127.6036,-514.6177 C 4808.1858,2349.7801 4770.9571,2308.0685 4724,2296 Z M 542,1455 367.78266,1861.0268 275,2293 C 449.56914,2432.4274 516.10428,2190.2621 539.04609,2061.2409 577.15026,1894.0267 642.40753,1730.9561 663.125,1561.0938 655.31407,1502.528 601.09608,1454.4723 542,1455 Z m 3752,4 c -175.7126,-24.9159 -166.9076,183.0808 -209.5916,297.722 -38.1975,141.0742 -75.9165,282.2925 -114.4084,423.278 32.5006,297.947 298.0747,77.5459 287.2733,-104.7776 39.2426,-171.8807 106.0946,-339.5891 127.7111,-514.1286 C 4377.8297,1513.2504 4340.9257,1471.3875 4294,1459 Z"
       id="path2" />
    <path
       d="m 2620,1870 c 300.2043,5.6346 103.1236,481.4293 -113.1371,273.1371 C 2403.9865,2052.0914 2482.8764,1861.6344 2620,1870 Z"
       id="path3" />
    <path
       fill="#ffffff"
       d="M 1282,860 C 1106.9628,835.59276 1114.7239,1043.291 1072.4084,1157.722 1034.2109,1298.7962 996.49189,1440.0145 958,1581 c 32.50065,297.947 298.0747,77.5459 287.2733,-104.7776 39.3409,-172.0262 106.0549,-339.7928 127.8517,-514.55052 C 1366.1858,913.78006 1328.9571,872.06847 1282,860 Z M 3467,979 C 3291.1894,953.81432 3298.721,1161.9586 3256.5987,1276.7733 3234.8851,1420.0657 3081.2601,1616.2638 3410,1619 c 45.525,-69.7448 100.3479,-321.9237 79.113,-242.6115 16.6204,-123.9578 123.378,-266.0835 21.3089,-375.4823 z M 2355,269 2117,303 c -54.3615,72.73014 -112.4367,366.94473 -80.9874,240.72529 C 2004.282,661.13222 1973.0275,778.68243 1941,896 c 37.2398,293.0595 297.9179,74.66075 287.2733,-105.77759 38.747,-171.15289 105.7609,-338.70502 128.3378,-511.9475 z m 1564,435 c -105.6511,155.5474 93.2738,421.3693 212,176 l -197,-165 -11.678,-8.56386 z M 2930,290 c -19.442,125.4419 -137.1173,294.68189 28.7629,372.46353 C 3145.2826,676.16457 3125.8159,464.59146 3174,343 l -226,-50 -14.2845,-2.38075 z"
       id="path4" />
  </g>
</svg>
